<svg id="Layer_1" data-name="Layer 1" xmlns="http://www.w3.org/2000/svg" viewBox="0 0 201 127"><defs><style>.cls-1{opacity:0.5;}.cls-2{fill:#fff;}</style></defs><g class="cls-1"><path class="cls-2" d="M38.55,156.33a.5.5,0,0,0-.5.5v1a.5.5,0,0,0,1,0v-1A.5.5,0,0,0,38.55,156.33Z" transform="translate(-15.05 -31.32)"/><path class="cls-2" d="M215,110.5c0-.22,0-.45,0-.67A38,38,0,0,0,180.79,72a40,40,0,0,0-57.94-18.15,40.5,40.5,0,0,0-76.8,17.83c-18.08,5.53-31,20.18-31,37.38a34,34,0,0,0,2.12,11.83,30.49,30.49,0,0,0,30.38,27.92h138a30.49,30.49,0,0,0,30.5-30.5A30.16,30.16,0,0,0,215,110.5Z" transform="translate(-15.05 -31.32)"/></g></svg>